HIERARCHY
ROOT pelvis
{
  OFFSET 0 100 0
  CHANNELS 6 Xposition Yposition Zposition Zrotation Xrotation Yrotation
  JOINT pelvis_right_femur
  {
    OFFSET -10.78128 -3.44521 -0.5502486
    CHANNELS 3 Zrotation Xrotation Yrotation
    JOINT right_femur_tibia
    {
      OFFSET -0.8047443 -44.0398 -0.1307829
      CHANNELS 3 Zrotation Xrotation Yrotation
      JOINT right_tibia_foot
      {
        OFFSET 3.006224 -47.83518 -5
        CHANNELS 3 Zrotation Xrotation Yrotation
        End Site
        {
          OFFSET 0 -5 15
        }
      }
    }
  }
  JOINT pelvis_left_femur
  {
    OFFSET 10.78128 -3.44521 -0.5502486
    CHANNELS 3 Zrotation Xrotation Yrotation
    JOINT left_femur_tibia
    {
      OFFSET 0.8047443 -44.0398 -0.1307829
      CHANNELS 3 Zrotation Xrotation Yrotation
      JOINT left_tibia_foot
      {
        OFFSET -4.370144 -48.10324 -4.275266
        CHANNELS 3 Zrotation Xrotation Yrotation
        End Site
        {
          OFFSET 0 -5 15
        }
      }
    }
  }
  JOINT pelvis_spine1
  {
    OFFSET 0 6.468898 -3.129235
    CHANNELS 3 Zrotation Xrotation Yrotation
    JOINT spine1
    {
      OFFSET 0 23.15396 4.99043
      CHANNELS 3 Zrotation Xrotation Yrotation
      JOINT spine2
      {
        OFFSET 0 20.79997 -5.064912
        CHANNELS 3 Zrotation Xrotation Yrotation
        JOINT neck
        {
          OFFSET 0 14.38658 9.616178
          CHANNELS 3 Zrotation Xrotation Yrotation
          End Site
          {
            OFFSET 0 20 0
          }
        }
      }
      JOINT right_manubrium
      {
        OFFSET -5.722621 16.35077 3.967754
        CHANNELS 3 Zrotation Xrotation Yrotation
        JOINT right_clavicle
        {
          OFFSET -13.16364 1.694482 -4.693211
          CHANNELS 3 Zrotation Xrotation Yrotation
          JOINT right_humerus
          {
            OFFSET -28.5034 -0.3100689 -2.792744
            CHANNELS 3 Zrotation Xrotation Yrotation
            JOINT right_radius
            {
              OFFSET -25.15693 0.02248979 -1.271978
              CHANNELS 3 Zrotation Xrotation Yrotation
              End Site
              {
                OFFSET -15 0 0
              }
            }
          }
        }
      }
      JOINT left_manubrium
      {
        OFFSET 5.722621 16.35077 3.967754
        CHANNELS 3 Zrotation Xrotation Yrotation
        JOINT left_clavicle
        {
          OFFSET 13.16364 1.694482 -4.693211
          CHANNELS 3 Zrotation Xrotation Yrotation
          JOINT left_humerus
          {
            OFFSET 29.39168 -1.063119 -2.237045
            CHANNELS 3 Zrotation Xrotation Yrotation
            JOINT left_radius
            {
              OFFSET 24.59957 -0.9528479 0.9047498
              CHANNELS 3 Zrotation Xrotation Yrotation
              End Site
              {
                OFFSET 15 -0 -0
              }
            }
          }
        }
      }
    }
  }
}
MOTION
Frames: 19
Frame Time: 0.0416666666667
1483.43 104.6998 2380.325 6.015414 -1.953028 62.58077 -0.01921761 -23.49793 0.8228948 -0 34.4782 -0 -2.03921 -4.366445 -8.204208 -5.333232 13.99844 -10.53577 -0 8.144072 -0 -2.806855 -20.20143 14.31417 -3.397792 1.405491 1.21897 1.29255 8.476483 -7.728249 1.379269 23.28052 6.6459 2.065269 -16.36778 8.075821 2.836519 -13.98165 9.921742 89.14869 29.26024 -18.95551 -0 0 9.082038 -18.83174 12.35947 9.954825 5.950162 -20.25336 -4.578347 -82.41328 24.28189 5.697697 0 0 -21.6527 2.252553 10.76066 9.935799
1487.885 103.668 2382.76 5.22441 -1.725574 63.37058 0.6715803 -26.75077 0.8487432 -0 27.17004 -0 -2.204505 -4.738649 -8.423929 -5.140811 17.00437 -11.11256 -0 8.862148 -0 -3.711182 -21.62285 14.23626 -3.188238 1.236354 0.9889106 1.610022 7.962472 -7.920946 1.675524 23.16103 6.48706 2.158058 -16.84468 8.205842 2.590721 -13.32538 9.651213 89.74336 28.96956 -20.38508 -0 0 8.159505 -17.45855 12.07627 8.94479 6.64391 -20.67942 -4.210391 -82.29067 25.14415 4.456689 0 0 -23.15908 2.098387 11.40171 10.07032
1492.55 102.5691 2385.389 4.245357 -1.563816 63.99849 1.593136 -28.95971 1.142255 -0 21.28272 -0 -2.383931 -4.355678 -8.355951 -4.877251 18.88424 -11.51742 -0 11.28413 -0 -4.877021 -22.27753 13.83246 -2.83356 1.033993 0.9572362 1.845638 7.580902 -7.981376 1.975389 22.87821 6.353252 2.32582 -17.5794 8.324295 2.4876 -12.83902 9.466077 90.08116 28.74809 -21.41367 -0 0 7.602115 -16.3104 11.89696 8.086011 7.141704 -20.90783 -3.788528 -82.63124 25.82368 4.215249 0 0 -23.88627 2.019523 11.88381 10.28949
1497.516 101.5742 2388.22 3.215282 -1.511487 64.48386 2.668652 -30.03954 1.623535 -0 17.102 -0 -2.617116 -3.797365 -8.122767 -4.542322 19.77929 -11.62724 -0 15.16719 -0 -6.145065 -21.90936 13.05645 -2.340272 0.811415 1.032103 2.036602 7.3294 -7.990314 2.198854 22.51159 6.240398 2.484108 -18.3782 8.385019 2.510705 -12.46638 9.375546 90.23446 28.65848 -22.09223 -0 0 7.238361 -15.41871 11.84191 7.43561 7.362884 -20.95431 -3.386918 -83.15266 26.12231 4.582794 0 0 -23.99977 2.120605 12.10786 10.37738
1502.833 100.8339 2391.249 2.34084 -1.599477 64.82366 3.790361 -29.71888 2.224058 -0 14.7275 -0 -2.904167 -3.585606 -7.842002 -4.152489 19.80375 -11.42882 -0 20.46433 -0 -7.330194 -20.32756 12.05823 -1.734647 0.5524098 1.164948 2.198444 7.222674 -7.983384 2.303332 22.17177 6.127548 2.563886 -19.05611 8.34998 2.624384 -12.18183 9.392596 90.27744 28.67333 -22.47636 -0 0 6.933728 -14.79806 11.90494 7.021028 7.242065 -20.82534 -3.081967 -83.66346 26.01448 5.264732 0 0 -23.65468 2.372958 12.0517 10.29094
1508.475 100.4871 2394.448 1.861608 -1.842267 64.98874 4.839627 -27.70039 2.902431 -0 14.15904 -0 -3.221343 -4.031041 -7.594949 -3.737999 18.91048 -11.0111 -0 27.28943 -0 -8.266663 -17.5361 11.13659 -1.067799 0.2649983 1.371426 2.318429 7.301829 -7.936183 2.294444 21.97611 5.985342 2.535392 -19.48616 8.202646 2.80083 -12.01842 9.541753 90.24251 28.7104 -22.57719 -0 0 6.665471 -14.43229 12.0569 6.830333 6.749651 -20.52827 -2.935801 -84.14369 25.66509 6.185125 0 0 -22.93544 2.627492 11.78208 10.17404
1514.313 100.6493 2397.75 1.98073 -2.216353 64.9439 5.688863 -23.93786 3.620571 -0 15.15424 -0 -3.56305 -5.07678 -7.392328 -3.351604 16.86993 -10.50441 -0 35.64689 -0 -8.865343 -13.91708 10.63965 -0.4419504 0.03024153 1.726803 2.359416 7.61642 -7.773075 2.226696 22.00945 5.791205 2.436193 -19.62047 7.952891 3.0375 -12.05246 9.842162 90.08874 28.70921 -22.34251 -0 0 6.534745 -14.28322 12.25209 6.809548 5.956692 -20.11305 -2.956757 -84.72501 25.31391 7.431688 0 0 -21.86767 2.726013 11.43858 10.21529
1520.129 101.3611 2401.052 2.766211 -2.637186 64.68248 6.205424 -18.84139 4.297367 -0 16.9808 -0 -3.9527 -6.284173 -7.158346 -3.062783 13.40501 -9.981091 -0 44.96769 -0 -9.135335 -10.28991 10.83173 -0.02252395 -0.00708992 2.324494 2.275265 8.175674 -7.408521 2.180836 22.27847 5.547081 2.371456 -19.47325 7.628475 3.342173 -12.35015 10.27106 89.70005 28.69826 -21.67364 -0 0 6.710513 -14.34638 12.44469 6.894779 5.086678 -19.70395 -3.068226 -85.55191 25.07414 9.047964 0 0 -20.50405 2.641061 11.16369 10.4371
1525.699 102.5146 2404.243 4.062806 -2.9798 64.24252 6.302462 -13.15096 4.804631 -0 18.44691 -0 -4.357652 -7.219555 -6.77842 -2.890118 8.408578 -9.391243 -0 53.71074 -0 -9.139407 -7.609028 11.76916 0.0340486 0.2632967 3.205833 2.037515 8.886593 -6.809342 2.214286 22.69406 5.28376 2.438725 -19.08357 7.266436 3.673245 -12.93168 10.74339 88.91975 28.75236 -20.44856 -0 0 7.375035 -14.70542 12.60782 7.081638 4.443213 -19.43555 -3.137873 -86.61754 24.84982 10.87862 0 0 -19.00976 2.477688 11.00676 10.66787
1530.908 103.831 2407.245 5.475093 -3.155251 63.6788 6.025391 -7.512259 5.028569 -0 18.46836 -0 -4.613371 -8.025836 -6.180344 -2.70003 2.061876 -8.613648 -0 59.55418 -0 -8.944756 -6.380606 13.24009 -0.268196 0.8050033 4.302707 1.663327 9.540066 -6.033858 2.312105 23.1113 5.049516 2.621309 -18.52669 6.916136 3.897402 -13.80398 11.14815 87.61897 28.86141 -18.54457 -0 0 8.718159 -15.48275 12.72467 7.471304 4.204921 -19.30383 -3.067633 -87.76994 24.5405 12.7196 0 0 -17.61988 2.281412 10.90259 10.82653
1535.804 104.9474 2410.031 6.489002 -3.160195 63.02079 5.55887 -2.211738 4.914165 -0 16.73571 -0 -4.569438 -9.359892 -5.344595 -2.234859 -5.168492 -7.580283 -0 60.44661 -0 -8.609479 -6.350975 14.84129 -0.7134738 1.438945 5.436 1.2223 9.903237 -5.212292 2.384635 23.40436 4.900678 2.798465 -17.96637 6.629275 3.862418 -14.98543 11.41379 85.79623 28.93254 -15.92871 -0 0 10.84853 -16.69865 12.74436 8.215478 4.299167 -19.1364 -2.858557 -88.89323 24.23567 14.58406 0 0 -16.46439 1.950242 10.76912 11.09355
1540.549 105.5615 2412.616 6.738804 -3.03456 62.27429 5.095026 2.681121 4.454562 -0 13.79821 -0 -4.314142 -11.57777 -4.263966 -1.330892 -12.52534 -6.351875 -0 55.86152 -0 -8.156819 -6.824931 16.19616 -1.04857 1.957496 6.387114 0.8048718 9.865528 -4.482369 2.331807 23.51919 4.886959 2.882899 -17.60571 6.426379 3.533629 -16.42521 11.5256 83.64338 28.95493 -12.78936 -0 0 13.58236 -18.20752 12.57716 9.378886 4.522041 -18.77368 -2.578477 -89.96308 24.04139 16.59341 0 0 -15.46302 1.4585 10.60012 11.59133
1545.326 105.5287 2415.052 6.23799 -2.807932 61.46105 4.70027 7.096217 3.717457 -0 10.6662 -0 -4.076022 -14.24803 -2.996555 -0.1101803 -19.06222 -5.11474 -0 47.162 -0 -7.573097 -7.224885 17.15305 -1.185912 2.219827 7.013834 0.4693481 9.499925 -3.92439 2.129451 23.47295 5.015254 2.889989 -17.53008 6.29291 3.021762 -17.93444 11.49578 81.48213 29.0151 -9.526924 -0 0 16.43027 -19.78466 12.18392 10.84734 4.729926 -18.21141 -2.287042 -90.93094 23.8695 18.66343 0 0 -14.42789 0.9929642 10.43636 12.11941
1550.28 104.8772 2417.41 5.346533 -2.511045 60.63397 4.316205 10.94948 2.896602 -0 8.436192 -0 -3.921865 -16.51379 -1.726092 1.054609 -23.98146 -4.137442 -0 36.83314 -0 -6.879062 -7.346825 17.79513 -1.207294 2.175798 7.320458 0.2124895 8.995672 -3.53612 1.855267 23.31903 5.231218 2.872803 -17.64861 6.220353 2.483611 -19.26821 11.34843 79.62969 29.11638 -6.585821 -0 0 18.8996 -21.25171 11.65342 12.37409 4.876562 -17.54036 -2.015278 -91.70591 23.56577 20.53065 0 0 -13.23275 0.7381438 10.293 12.41397
1555.507 103.7744 2419.767 4.520301 -2.200276 59.85467 3.845208 14.2035 2.261451 -0 8.033565 -0 -3.688729 -17.64391 -0.6783287 1.753201 -26.93225 -3.675361 -0 27.32367 -0 -6.171626 -7.264899 18.30102 -1.236632 1.851017 7.422189 -0.01472809 8.5501 -3.258674 1.632881 23.11325 5.453407 2.857166 -17.7992 6.229073 2.030495 -20.26082 11.12368 78.31597 29.10912 -4.300359 -0 0 20.7524 -22.53464 11.15972 13.71047 4.948684 -16.83759 -1.790806 -92.25891 23.11242 22.02119 0 0 -11.87157 0.6744463 10.1451 12.46643
1561.07 102.477 2422.183 4.084519 -1.943046 59.17593 3.218123 16.84129 2.027336 -0 10.03457 -0 -3.168288 -17.24343 -0.009744997 1.744214 -27.9957 -3.850802 -0 20.28002 -0 -5.569477 -7.142538 18.8081 -1.351123 1.319292 7.452065 -0.2685036 8.302978 -3.026497 1.55651 22.89601 5.624246 2.844737 -17.87071 6.3479 1.714736 -20.87015 10.87384 77.65775 28.81783 -2.839256 -0 0 21.99175 -23.64349 10.85993 14.70185 4.930981 -16.14472 -1.650785 -92.6563 22.62169 23.15588 0 0 -10.41579 0.6393059 9.96344 12.48673
1566.996 101.2819 2424.691 4.158437 -1.786398 58.64702 2.418108 18.77596 2.265959 -0 14.61358 -0 -2.290388 -15.21065 0.2130462 1.01896 -27.46511 -4.607971 -0 16.3803 -0 -5.136206 -7.121293 19.34793 -1.571691 0.6783649 7.489707 -0.5809376 8.323022 -2.806431 1.652627 22.68868 5.733477 2.839843 -17.84197 6.585265 1.560747 -21.13396 10.65165 77.65843 28.18945 -2.224145 -0 0 22.70706 -24.61452 10.83399 15.3022 4.813114 -15.50244 -1.633173 -92.98509 22.21599 24.04633 0 0 -8.964159 0.4962435 9.742823 12.68099
1573.266 100.4763 2427.292 4.686361 -1.740386 58.32382 1.488042 19.7803 2.888488 -0 21.56689 -0 -1.176073 -11.67577 -0.01186076 -0.2570198 -25.65715 -5.759047 -0 15.50596 -0 -4.850986 -7.294701 19.83861 -1.885471 0.03987605 7.537115 -0.9450147 8.616988 -2.613855 1.879885 22.4996 5.811661 2.859561 -17.75707 6.916787 1.59135 -21.11172 10.5013 78.22802 27.34711 -2.381027 -0 0 22.95395 -25.45749 11.08134 15.54147 4.601924 -14.97902 -1.765525 -93.27007 21.95244 24.75765 0 0 -7.633582 0.2316074 9.502026 13.10333
1579.789 100.2829 2429.941 5.494929 -1.780499 58.26763 0.5379277 19.48546 3.667865 -0 30.30273 -0 -0.08699366 -7.025706 -0.6280236 -1.823651 -22.84339 -7.051928 -0 16.93684 -0 -4.626729 -7.716862 20.10826 -2.261789 -0.4717611 7.525646 -1.310274 9.135881 -2.511958 2.145826 22.33515 5.910049 2.922657 -17.68194 7.28808 1.82785 -20.85295 10.45277 79.21743 26.55717 -3.191884 -0 0 22.72033 -26.12767 11.53921 15.48894 4.324206 -14.67206 -2.059592 -93.43502 21.82251 25.22978 0 0 -6.583198 -0.04769806 9.273469 13.63653
